<?xml version="1.0" encoding="UTF-8"?>
<svg version="1.1" xmlns="http://www.w3.org/2000/svg" width="260" height="280">
<path d="M0 0 C0.8112793 2.22290039 0.8112793 2.22290039 1.07421875 4.84765625 C1.23796997 6.32697632 1.23796997 6.32697632 1.4050293 7.83618164 C1.54485229 9.43320923 1.54485229 9.43320923 1.6875 11.0625 C1.8572937 12.70303345 1.8572937 12.70303345 2.03051758 14.37670898 C2.38534387 17.91566746 2.69927808 21.45604926 3 25 C3.15662109 26.84271484 3.15662109 26.84271484 3.31640625 28.72265625 C3.93295715 36.14468035 4.4922536 43.56976499 5 51 C5.81267334 51.23710693 6.62534668 51.47421387 7.46264648 51.71850586 C10.46943296 52.59743256 13.47535411 53.4792421 16.48071289 54.36303711 C17.78310595 54.74538656 19.08584025 55.12657558 20.38891602 55.5065918 C22.25886324 56.05214125 24.12750055 56.6021744 25.99609375 57.15234375 C27.68496704 57.6472229 27.68496704 57.6472229 29.40795898 58.15209961 C32 59 32 59 33 60 C33.10374958 61.58515578 33.13851889 63.17489466 33.14526367 64.76342773 C33.15164352 65.77795517 33.15802338 66.7924826 33.16459656 67.8377533 C33.16570938 68.94188065 33.1668222 70.046008 33.16796875 71.18359375 C33.17296135 72.87235374 33.17296135 72.87235374 33.17805481 74.5952301 C33.18312894 76.98185821 33.18546299 79.36849345 33.18530273 81.75512695 C33.18748851 85.41824974 33.2056374 89.08107122 33.22460938 92.74414062 C33.22754326 95.05729063 33.22952809 97.37044208 33.23046875 99.68359375 C33.23765427 100.78569687 33.24483978 101.88779999 33.25224304 103.02330017 C33.24916641 104.04097977 33.24608978 105.05865936 33.24291992 106.10717773 C33.24434494 107.00572983 33.24576996 107.90428192 33.24723816 108.83006287 C33 111 33 111 31 113 C28.9375 112.75 28.9375 112.75 27 112 C25.49843126 108.99686252 25.90718796 106.20932478 25.9375 102.875 C25.94652344 101.59367187 25.95554687 100.31234375 25.96484375 98.9921875 C25.97644531 98.00476563 25.98804688 97.01734375 26 96 C25.17242187 95.74476563 24.34484375 95.48953125 23.4921875 95.2265625 C19.56559849 93.84742497 15.87742537 92.16394698 12.125 90.375 C11.43664062 90.05015625 10.74828125 89.7253125 10.0390625 89.390625 C8.35794781 88.59676528 6.67877079 87.79880442 5 87 C4.96132812 88.26457031 4.96132812 88.26457031 4.921875 89.5546875 C4.83679688 91.19824219 4.83679688 91.19824219 4.75 92.875 C4.70359375 93.96554688 4.6571875 95.05609375 4.609375 96.1796875 C4 99 4 99 1.953125 100.3828125 C0.98632812 100.68832031 0.98632812 100.68832031 0 101 C-1.48168945 99.86010742 -1.48168945 99.86010742 -3 98 C-3.34057617 95.36450195 -3.34057617 95.36450195 -3.29296875 92.23828125 C-3.2784668 90.56088867 -3.2784668 90.56088867 -3.26367188 88.84960938 C-3.23853516 87.68236328 -3.21339844 86.51511719 -3.1875 85.3125 C-3.17396484 84.13365234 -3.16042969 82.95480469 -3.14648438 81.74023438 C-3.11109326 78.82636589 -3.06171809 75.91341055 -3 73 C-7.95 73.495 -7.95 73.495 -13 74 C-13 91.49 -13 108.98 -13 127 C-14.98 127.99 -14.98 127.99 -17 129 C-18.55078125 127.8984375 -18.55078125 127.8984375 -20 126 C-19.75619544 123.87172957 -19.48076796 121.74702017 -19.1875 119.625 C-19.27298655 115.49802619 -19.27298655 115.49802619 -21 112 C-28.0641256 106.30712886 -36.75531186 102.66082927 -45 99 C-44.97679688 99.84304687 -44.95359375 100.68609375 -44.9296875 101.5546875 C-44.90261719 103.19824219 -44.90261719 103.19824219 -44.875 104.875 C-44.85179688 105.96554688 -44.82859375 107.05609375 -44.8046875 108.1796875 C-45 111 -45 111 -47 113 C-50.53571429 112.46428571 -50.53571429 112.46428571 -52 111 C-52.08320499 109.35857083 -52.0963462 107.71354054 -52.08178711 106.07006836 C-52.0753418 105.01117401 -52.06889648 103.95227966 -52.06225586 102.86129761 C-52.04497437 101.11817795 -52.04497437 101.11817795 -52.02734375 99.33984375 C-52.01304803 96.86271466 -51.99931695 94.38558226 -51.98608398 91.90844727 C-51.97777557 90.60529572 -51.96946716 89.30214417 -51.96090698 87.95950317 C-51.80629235 62.63816856 -52.37976321 37.65726298 -54.80029297 12.44140625 C-55.115753 8.58492659 -55.1842335 4.86890348 -55 1 C-50.80553029 -3.19446971 -43.89757687 -2.25868722 -38.28125 -2.421875 C-36.87800476 -2.46371918 -36.87800476 -2.46371918 -35.44641113 -2.50640869 C-33.47297185 -2.56266451 -31.49945629 -2.61629815 -29.52587891 -2.66748047 C-26.51012461 -2.74972389 -23.49554885 -2.85326646 -20.48046875 -2.95703125 C-18.55993128 -3.00913575 -16.63935856 -3.05996004 -14.71875 -3.109375 C-13.81966919 -3.14359558 -12.92058838 -3.17781616 -11.9942627 -3.21307373 C-3.68835212 -3.38049166 -3.68835212 -3.38049166 0 0 Z M-17.36328125 37.875 C-18.15526413 37.96378418 -18.94724701 38.05256836 -19.76322937 38.14404297 C-22.27995223 38.4267758 -24.7962226 38.71333244 -27.3125 39 C-29.02406004 39.19296128 -30.73564831 39.38567238 -32.44726562 39.578125 C-36.63184285 40.04918649 -40.81601859 40.52367663 -45 41 C-45.05406122 42.93719378 -45.09282025 44.87481921 -45.125 46.8125 C-45.14820312 47.89144531 -45.17140625 48.97039062 -45.1953125 50.08203125 C-45.23023717 53.19402868 -45.23023717 53.19402868 -43 56 C-29.8 54.35 -16.6 52.7 -3 51 C-2.45384301 43.75303584 -2.45384301 43.75303584 -4 37 C-8.50021168 36.87553434 -12.90083224 37.36237256 -17.36328125 37.875 Z M-44 63 C-44.26210888 67.37385799 -44.42144886 71.74569809 -44.5625 76.125 C-44.63791016 77.3625 -44.71332031 78.6 -44.79101562 79.875 C-45.13275005 86.45828482 -45.13275005 86.45828482 -42.22021484 92.05224609 C-39.88311368 93.62778066 -37.56080721 94.82787658 -35 96 C-33.69029676 96.76575961 -32.38749028 97.54350679 -31.09375 98.3359375 C-29.89775252 99.01899641 -28.69986604 99.69875971 -27.5 100.375 C-26.88125 100.72949219 -26.2625 101.08398438 -25.625 101.44921875 C-22.97097728 103.23029135 -22.97097728 103.23029135 -20 104 C-20 93.77 -20 83.54 -20 73 C-23.774375 71.35 -27.54875 69.7 -31.4375 68 C-33.22498657 67.21689453 -33.22498657 67.21689453 -35.04858398 66.41796875 C-35.98001221 66.01191406 -36.91144043 65.60585937 -37.87109375 65.1875 C-38.82943115 64.76855469 -39.78776855 64.34960938 -40.77514648 63.91796875 C-42.75293609 62.93643202 -42.75293609 62.93643202 -44 63 Z M13.875 68.4375 C13.14667969 68.57220703 12.41835937 68.70691406 11.66796875 68.84570312 C7.72008664 69.56032517 7.72008664 69.56032517 4 71 C4 73.97 4 76.94 4 80 C6.35114592 81.13169701 8.70559335 82.25541381 11.0625 83.375 C11.71927734 83.69210938 12.37605469 84.00921875 13.05273438 84.3359375 C13.70693359 84.6453125 14.36113281 84.9546875 15.03515625 85.2734375 C15.92279663 85.69761963 15.92279663 85.69761963 16.82836914 86.13037109 C19.80215199 87.32122152 22.91989356 88.11996959 26 89 C26 81.74 26 74.48 26 67 C21.81267383 67 17.96379483 67.6511933 13.875 68.4375 Z " fill="#284740" transform="translate(141,67)"/>
<path d="" fill="#FFFFFF" transform="translate(0,0)"/>
</svg>
